<?xml version="1.0" encoding="UTF-8" standalone="no"?>
<!-- Created with Inkscape (http://www.inkscape.org/) -->

<svg
   xmlns:dc="http://purl.org/dc/elements/1.1/"
   xmlns:cc="http://creativecommons.org/ns#"
   xmlns:rdf="http://www.w3.org/1999/02/22-rdf-syntax-ns#"
   xmlns:svg="http://www.w3.org/2000/svg"
   xmlns="http://www.w3.org/2000/svg"
   xmlns:sodipodi="http://sodipodi.sourceforge.net/DTD/sodipodi-0.dtd"
   xmlns:inkscape="http://www.inkscape.org/namespaces/inkscape"
   width="79.372314mm"
   height="287.84253mm"
   viewBox="0 0 79.372312 287.84253"
   version="1.1"
   id="svg4524"
   inkscape:version="0.92.1 r"
   sodipodi:docname="dessin.svg">
  <defs
     id="defs4518" />
  <sodipodi:namedview
     id="base"
     pagecolor="#ffffff"
     bordercolor="#666666"
     borderopacity="1.0"
     inkscape:pageopacity="0.0"
     inkscape:pageshadow="2"
     inkscape:zoom="0.7"
     inkscape:cx="176.78902"
     inkscape:cy="612.81391"
     inkscape:document-units="mm"
     inkscape:current-layer="layer1"
     showgrid="false"
     inkscape:window-width="1280"
     inkscape:window-height="774"
     inkscape:window-x="0"
     inkscape:window-y="0"
     inkscape:window-maximized="0" />
  <metadata
     id="metadata4521">
    <rdf:RDF>
      <cc:Work
         rdf:about="">
        <dc:format>image/svg+xml</dc:format>
        <dc:type
           rdf:resource="http://purl.org/dc/dcmitype/StillImage" />
        <dc:title></dc:title>
      </cc:Work>
    </rdf:RDF>
  </metadata>
  <g
     inkscape:label="Calque 1"
     inkscape:groupmode="layer"
     id="layer1"
     transform="translate(-44.601189,-4.1056584)">
    <path
       style="fill:#55acee;fill-opacity:1;stroke-width:0.30230263"
       d="M 44.60119,291.94819 V 4.1056595 h 79.37231"
       id="rect4526"
       inkscape:connector-curvature="0"
       sodipodi:nodetypes="ccc"
       inkscape:export-xdpi="96"
       inkscape:export-ydpi="96" />
    <path
       style="fill:#55acee;fill-opacity:0;stroke-width:2.02030516"
       d="M 1.2547883,539.29791 1.0952905,0.38152785 H 149.80673 298.51818 L 297.15674,5.9373669 C 295.09215,14.3626 3.0922813,1073.8726 2.1951044,1076.194 1.7656544,1077.3052 1.342512,835.70192 1.2547883,539.29791 Z"
       id="path5116"
       inkscape:connector-curvature="0"
       transform="matrix(0.26458333,0,0,0.26458333,44.601189,4.1056584)" />
    <path
       style="fill:#55acee;fill-opacity:0;stroke-width:2.02030516"
       d="M 0.44666631,540.30806 0.28716848,0.38152785 H 149.72634 c 118.67903,0 149.25601,0.51981743 148.54936,2.52538135 C 297.78631,4.295869 231.40377,244.98997 150.75896,537.78268 70.114157,830.5754 3.3387203,1072.4059 2.3691036,1075.1838 1.3564515,1078.0851 0.53828351,850.44787 0.44666631,540.30806 Z"
       id="path5118"
       inkscape:connector-curvature="0"
       transform="matrix(0.26458333,0,0,0.26458333,44.601189,4.1056584)" />
    <path
       style="fill:#55acee;fill-opacity:0;stroke-width:2.02030516"
       d="M 0.44666631,540.30806 0.28716848,0.38152785 H 149.72634 c 118.67903,0 149.25601,0.51981743 148.54936,2.52538135 C 297.78631,4.295869 231.40377,244.98997 150.75896,537.78268 70.114157,830.5754 3.3387203,1072.4059 2.3691036,1075.1838 1.3564515,1078.0851 0.53828351,850.44787 0.44666631,540.30806 Z"
       id="path5120"
       inkscape:connector-curvature="0"
       transform="matrix(0.26458333,0,0,0.26458333,44.601189,4.1056584)" />
    <path
       style="fill:#55acee;fill-opacity:0;stroke-width:2.02030516"
       d="M 0.44666631,540.30806 0.28716848,0.38152785 H 149.72634 c 118.67903,0 149.25601,0.51981743 148.54936,2.52538135 C 297.78631,4.295869 231.40377,244.98997 150.75896,537.78268 70.114157,830.5754 3.3387203,1072.4059 2.3691036,1075.1838 1.3564515,1078.0851 0.53828351,850.44787 0.44666631,540.30806 Z"
       id="path5122"
       inkscape:connector-curvature="0"
       transform="matrix(0.26458333,0,0,0.26458333,44.601189,4.1056584)" />
    <path
       style="fill:#55acee;fill-opacity:0;stroke-width:2.02030516"
       d="M 0.44666631,540.30806 0.28716848,0.38152785 H 149.72634 c 118.67903,0 149.25601,0.51981743 148.54936,2.52538135 C 297.78631,4.295869 231.40377,244.98997 150.75896,537.78268 70.114157,830.5754 3.3387203,1072.4059 2.3691036,1075.1838 1.3564515,1078.0851 0.53828351,850.44787 0.44666631,540.30806 Z"
       id="path5124"
       inkscape:connector-curvature="0"
       transform="matrix(0.26458333,0,0,0.26458333,44.601189,4.1056584)" />
    <path
       style="fill:#55acee;fill-opacity:0;stroke-width:2.02030516"
       d="M 0.44666631,540.30806 0.28716848,0.38152785 H 149.72634 c 118.67903,0 149.25601,0.51981743 148.54936,2.52538135 C 297.78631,4.295869 231.40377,244.98997 150.75896,537.78268 70.114157,830.5754 3.3387203,1072.4059 2.3691036,1075.1838 1.3564515,1078.0851 0.53828351,850.44787 0.44666631,540.30806 Z"
       id="path5126"
       inkscape:connector-curvature="0"
       transform="matrix(0.26458333,0,0,0.26458333,44.601189,4.1056584)" />
    <path
       style="fill:#55acee;fill-opacity:0;stroke-width:2.02030516"
       d="M 0.44666631,540.30806 0.28716848,0.38152785 H 149.72634 c 118.67903,0 149.25601,0.51981743 148.54936,2.52538135 C 297.78631,4.295869 231.40377,244.98997 150.75896,537.78268 70.114157,830.5754 3.3387203,1072.4059 2.3691036,1075.1838 1.3564515,1078.0851 0.53828351,850.44787 0.44666631,540.30806 Z"
       id="path5128"
       inkscape:connector-curvature="0"
       transform="matrix(0.26458333,0,0,0.26458333,44.601189,4.1056584)" />
    <path
       style="fill:#55acee;fill-opacity:0;stroke-width:2.02030516"
       d="M 0.44666631,540.30806 0.28716848,0.38152785 H 149.72634 c 118.67903,0 149.25601,0.51981743 148.54936,2.52538135 C 297.78631,4.295869 231.40377,244.98997 150.75896,537.78268 70.114157,830.5754 3.3387203,1072.4059 2.3691036,1075.1838 1.3564515,1078.0851 0.53828351,850.44787 0.44666631,540.30806 Z"
       id="path5130"
       inkscape:connector-curvature="0"
       transform="matrix(0.26458333,0,0,0.26458333,44.601189,4.1056584)" />
    <path
       style="fill:#55acee;fill-opacity:0;stroke-width:2.02030516"
       d="M 0.44666631,540.30806 0.28716848,0.38152785 H 149.72634 c 118.67903,0 149.25601,0.51981743 148.54936,2.52538135 C 297.78631,4.295869 231.40377,244.98997 150.75896,537.78268 70.114157,830.5754 3.3387203,1072.4059 2.3691036,1075.1838 1.3564515,1078.0851 0.53828351,850.44787 0.44666631,540.30806 Z"
       id="path5132"
       inkscape:connector-curvature="0"
       transform="matrix(0.26458333,0,0,0.26458333,44.601189,4.1056584)" />
    <path
       style="fill:#55acee;fill-opacity:0;stroke-width:2.02030516"
       d="M 0.44666631,540.30806 0.28716848,0.38152785 H 149.72634 c 118.67903,0 149.25601,0.51981743 148.54936,2.52538135 C 297.78631,4.295869 231.40377,244.98997 150.75896,537.78268 70.114157,830.5754 3.3387203,1072.4059 2.3691036,1075.1838 1.3564515,1078.0851 0.53828351,850.44787 0.44666631,540.30806 Z"
       id="path5134"
       inkscape:connector-curvature="0"
       transform="matrix(0.26458333,0,0,0.26458333,44.601189,4.1056584)" />
    <path
       style="fill:#55acee;fill-opacity:0;stroke-width:2.02030516"
       d="M 0.44666631,540.30806 0.28716848,0.38152785 H 149.72634 c 118.67903,0 149.25601,0.51981743 148.54936,2.52538135 C 297.78631,4.295869 231.40377,244.98997 150.75896,537.78268 70.114157,830.5754 3.3387203,1072.4059 2.3691036,1075.1838 1.3564515,1078.0851 0.53828351,850.44787 0.44666631,540.30806 Z"
       id="path5136"
       inkscape:connector-curvature="0"
       transform="matrix(0.26458333,0,0,0.26458333,44.601189,4.1056584)" />
    <path
       style="fill:#55acee;fill-opacity:0;stroke-width:2.02030516"
       d="M 0.44666631,540.30806 0.28716848,0.38152785 H 149.72634 c 118.67903,0 149.25601,0.51981743 148.54936,2.52538135 C 297.78631,4.295869 231.40377,244.98997 150.75896,537.78268 70.114157,830.5754 3.3387203,1072.4059 2.3691036,1075.1838 1.3564515,1078.0851 0.53828351,850.44787 0.44666631,540.30806 Z"
       id="path5138"
       inkscape:connector-curvature="0"
       transform="matrix(0.26458333,0,0,0.26458333,44.601189,4.1056584)" />
    <path
       style="fill:#55acee;fill-opacity:0;stroke-width:2.02030516"
       d="M 0.44666631,540.30806 0.28716848,0.38152785 H 149.72634 c 118.67903,0 149.25601,0.51981743 148.54936,2.52538135 C 297.78631,4.295869 231.40377,244.98997 150.75896,537.78268 70.114157,830.5754 3.3387203,1072.4059 2.3691036,1075.1838 1.3564515,1078.0851 0.53828351,850.44787 0.44666631,540.30806 Z"
       id="path5140"
       inkscape:connector-curvature="0"
       transform="matrix(0.26458333,0,0,0.26458333,44.601189,4.1056584)" />
    <path
       style="fill:#55acee;fill-opacity:0;stroke-width:2.02030516"
       d="M 0.44666631,540.30806 0.28716848,0.38152785 H 149.72634 c 118.67903,0 149.25601,0.51981743 148.54936,2.52538135 C 297.78631,4.295869 231.40377,244.98997 150.75896,537.78268 70.114157,830.5754 3.3387203,1072.4059 2.3691036,1075.1838 1.3564515,1078.0851 0.53828351,850.44787 0.44666631,540.30806 Z"
       id="path5142"
       inkscape:connector-curvature="0"
       transform="matrix(0.26458333,0,0,0.26458333,44.601189,4.1056584)" />
  </g>
</svg>
